<?xml version="1.0" encoding="UTF-8" standalone="no"?><!DOCTYPE svg PUBLIC "-//W3C//DTD SVG 1.1//EN" "http://www.w3.org/Graphics/SVG/1.1/DTD/svg11.dtd"><svg width="100%" height="100%" viewBox="0 0 1868 660" version="1.1" xmlns="http://www.w3.org/2000/svg" xmlns:xlink="http://www.w3.org/1999/xlink" xml:space="preserve" xmlns:serif="http://www.serif.com/" style="fill-rule:evenodd;clip-rule:evenodd;stroke-linejoin:round;stroke-miterlimit:2;"><rect id="Artboard1" x="0" y="0" width="1867.01" height="659.82" style="fill:none;"/><g id="Layer-1" serif:id="Layer 1"><path d="M867.017,605.127l0,-132.877c0,-26.8 3.981,-49.258 11.808,-67.459c7.955,-18.176 18.751,-32.747 32.455,-43.758c13.07,-10.341 28.337,-17.841 45.834,-22.672c17.532,-4.771 35.528,-7.243 54.072,-7.243l10.272,0l0,73.115l-23.65,0c-19.884,0 -34.661,4.866 -44.272,14.452c-9.603,9.602 -14.435,24.714 -14.435,45.301l0,141.141l-72.084,0Z" style="fill:#030405;"/><path d="M1219.21,520.685l51.454,0c-7.594,28.791 -21.933,50.726 -43.199,65.812c-21.265,15.849 -48.065,23.736 -80.34,23.736c-39.132,0 -69.647,-12.727 -91.668,-38.076c-21.969,-24.758 -32.953,-60.097 -32.953,-106.085c0,-43.972 10.642,-78.272 31.915,-102.952c21.994,-25.462 52.527,-38.154 91.625,-38.154c41.217,0 73.166,12.331 95.872,37.115c21.935,25.358 32.885,60.706 32.885,106.068l0,11.318c0,3.433 -0.309,5.819 -1.022,7.227l-178.186,0c0.704,21.264 5.844,37.046 15.515,47.301c8.925,11.018 22.312,16.519 40.17,16.519c11.594,0 21.575,-2.386 29.829,-7.217c2.086,-0.67 3.949,-1.871 5.665,-3.552l5.655,-5.75c0.652,-2.017 3.287,-4.772 7.749,-8.17c4.428,-3.433 10.769,-5.14 19.034,-5.14m-123.617,-80.349l105.063,0c-1.398,-18.605 -6.144,-32.275 -14.408,-41.2c-8.934,-9.611 -21.66,-14.451 -38.085,-14.451c-15.12,0 -27.443,4.84 -37.055,14.451c-9.671,9.569 -14.811,23.333 -15.515,41.2" style="fill:#030405;"/><path d="M1279.96,514.506l70.009,0c0.669,13.704 5.818,23.951 15.421,30.867c10.314,6.858 24.019,10.281 41.216,10.281c12.358,0 23.007,-2.385 31.916,-7.217c8.229,-4.78 12.348,-11.319 12.348,-19.583c0,-12.331 -14.434,-21.574 -43.225,-27.822c-12.366,-2.016 -21.66,-4.092 -27.847,-6.17c-36.343,-8.907 -60.663,-19.497 -73.114,-31.914c-13.68,-12.323 -20.537,-28.783 -20.537,-49.413c0,-26.096 9.913,-47.73 29.83,-64.859c20.622,-15.858 47.387,-23.71 80.349,-23.71c35.639,0 64.129,7.852 85.429,23.71c19.909,17.129 30.559,39.441 31.966,66.885l-44.332,0c-13.035,0 -22.982,-5.792 -29.838,-17.506l-8.255,-8.231c-8.195,-6.178 -19.583,-9.242 -33.932,-9.242c-13.73,0 -24.019,2.017 -30.927,6.188c-6.188,4.101 -9.235,10.238 -9.235,18.536c0,11.018 17.859,20.226 53.472,27.804c4.188,1.356 7.766,2.369 10.873,3.038c3.047,0.763 5.956,1.064 8.71,1.064c35.03,8.941 59.392,19.248 73.123,30.937c13.036,12.366 19.549,28.791 19.549,49.42c0,30.19 -10.985,53.532 -32.945,70c-20.595,15.078 -51.462,22.664 -92.62,22.664c-39.166,0 -68.351,-7.887 -87.566,-23.737c-19.917,-15.756 -29.838,-38.737 -29.838,-68.927l0,-3.063Z" style="fill:#030405;"/><path d="M1528.1,514.506l70,0c0.703,13.704 5.878,23.951 15.455,30.867c10.273,6.858 24.045,10.281 41.217,10.281c12.357,0 22.973,-2.385 31.932,-7.217c8.238,-4.78 12.34,-11.319 12.34,-19.583c0,-12.331 -14.451,-21.574 -43.302,-27.822c-12.297,-2.016 -21.575,-4.092 -27.753,-6.17c-36.377,-8.907 -60.757,-19.497 -73.123,-31.914c-13.67,-12.323 -20.587,-28.783 -20.587,-49.413c0,-26.096 9.946,-47.73 29.855,-64.859c20.655,-15.858 47.336,-23.71 80.289,-23.71c35.741,0 64.224,7.852 85.481,23.71c19.96,17.129 30.592,39.441 31.948,66.885l-44.315,0c-12.992,0 -22.963,-5.792 -29.821,-17.506l-8.263,-8.231c-8.256,-6.178 -19.549,-9.242 -33.957,-9.242c-13.713,0 -24.054,2.017 -30.903,6.188c-6.179,4.101 -9.302,10.238 -9.302,18.536c0,11.018 17.867,20.226 53.575,27.804c4.162,1.356 7.74,2.369 10.864,3.038c3.029,0.763 5.93,1.064 8.71,1.064c35.03,8.941 59.367,19.248 73.132,30.937c12.992,12.366 19.557,28.791 19.557,49.42c0,30.19 -11.018,53.532 -32.962,70c-20.63,15.078 -51.463,22.664 -92.671,22.664c-39.167,0 -68.292,-7.887 -87.506,-23.737c-19.944,-15.756 -29.89,-38.737 -29.89,-68.927l0,-3.063Z" style="fill:#030405;"/><path d="M572.044,491.799l0,-160.681l-25.366,0l-10.71,0l-28.938,0l44.633,75.08l-50.665,0l0,100.043c0,16.46 -4.994,28.492 -14.966,36.017c-9.972,7.587 -21.136,11.38 -33.468,11.38c-12.332,0 -23.342,-3.793 -32.954,-11.38c-9.602,-7.525 -14.442,-19.557 -14.442,-36.017l0,-100.043l-51.609,0l44.641,-75.08l-65.048,0l0,160.681c0,8.05 0.455,15.421 1.218,22.553c-14.511,5.569 -30.138,8.778 -46.597,8.778c-71.252,0 -129.049,-57.788 -129.049,-129.049c0,-69.647 55.136,-126.182 124.157,-128.869c27.29,-90.629 111.303,-156.689 210.831,-156.689c92.012,0 170.489,56.637 203.365,136.763l66.464,0c-35.802,-115.25 -142.976,-199.298 -269.829,-199.298c-110.049,0 -210.256,65.452 -256.201,163.196c-82.005,21.942 -141.363,96.353 -141.363,184.897c0,105.621 85.917,191.625 191.625,191.625c21.196,0 47.327,-5.577 67.709,-12.58c4.255,4.831 8.838,9.088 14.193,12.426c24.423,15.078 51.344,23.282 80.804,24.681c30.293,0 58.045,-7.586 83.472,-22.664c25.367,-15.112 38.093,-47.027 38.093,-95.77" style="fill:#1188ca;fill-rule:nonzero;"/><path d="M839.05,333.891c-5.354,-45.337 -38.917,-79.791 -81.902,-92.243c-50.974,-14.838 -116.812,-9.611 -147.233,39.406c-9.08,14.657 -16.091,32.901 -15.327,50.365c1.862,46.872 0.738,93.899 -0.094,140.745c-0.721,42.711 -5.655,89.523 -35.175,122.992c-9.372,10.554 -22.003,20.741 -36.078,24.233c44.496,0 95.83,-9.525 123.797,-47.73c9.869,-13.498 17.043,-30.902 17.163,-47.851c40.926,8.05 89.824,5.347 125.986,-16.828c28.027,-17.163 45.344,-46.572 51.317,-78.486c5.132,-27.874 2.352,-56.295 -1.201,-84.194l-1.253,-10.409Zm-110.693,139.827c-19.788,0.918 -41.552,3.364 -61.315,0.086c-1.631,-0.301 -0.429,-25.35 -0.429,-27.59l0,-112.1c0,-9.148 3.33,-18.854 8.23,-26.5c14.657,-22.672 43.902,-21.256 66.876,-14.074c23.599,7.466 33.047,25.092 34.909,48.803c1.717,22.544 0.498,45.302 0.652,67.923c0.335,30.594 -14.931,61.898 -48.923,63.452"/></g></svg>